<?xml version="1.0" encoding="utf-8"?>
<!-- Generator: Adobe Illustrator 21.0.2, SVG Export Plug-In . SVG Version: 6.00 Build 0)  -->
<svg version="1.1" id="Calque_1" xmlns="http://www.w3.org/2000/svg" xmlns:xlink="http://www.w3.org/1999/xlink" x="0px" y="0px"
	 viewBox="0 0 100 125" style="enable-background:new 0 0 100 125;" xml:space="preserve">
<style type="text/css">
	.st0{fill:#26CAE3;}
</style>
<path class="st0" d="M26.1,11.8c-0.5-0.1-1.1-0.1-1.5,0.1C19.2,14,15.8,21.7,15,27c-2.5,17.2,11.1,32.1,23.6,41.9
	c11.1,8.7,32.4,23,45,9.2c1.6-1.7,3.5-4.2,3.4-6.7c-0.3-4.2-4.2-7.2-7.2-9.5c-2.3-1.7-7.1-6.4-10.1-6.3c-2.7,0.1-4.4,2.9-6.1,4.6
	l-3,3c-0.5,0.5-6.9-3.7-7.6-4.2c-2.6-1.7-5.1-3.6-7.3-5.7s-4.2-4.4-5.9-6.8c-0.5-0.7-4.6-6.8-4.2-7.3c0,0,3.5-3.8,4.5-5.3
	c2.1-3.2,3.7-5.7,1.3-9.5c-0.9-1.4-2-2.5-3.2-3.7c-2.1-2-4.2-4.1-6.6-5.8C30.3,13.9,28.1,12.1,26.1,11.8z"/>
</svg>
