<?xml version="1.0" encoding="utf-8"?>
<!-- Generator: Adobe Illustrator 21.0.2, SVG Export Plug-In . SVG Version: 6.00 Build 0)  -->
<svg version="1.1" id="Calque_1" xmlns="http://www.w3.org/2000/svg" xmlns:xlink="http://www.w3.org/1999/xlink" x="0px" y="0px"
	 viewBox="0 0 100 125" style="enable-background:new 0 0 100 125;" xml:space="preserve">
<style type="text/css">
	.st0{fill:#26CAE3;}
</style>
<path class="st0" d="M50,6.5C26,6.5,6.5,26,6.5,50S26,93.5,50,93.5S93.5,74,93.5,50S74,6.5,50,6.5z M50,90.5
	C27.7,90.5,9.5,72.3,9.5,50S27.7,9.5,50,9.5S90.5,27.7,90.5,50S72.3,90.5,50,90.5z M50,17.3c-0.8,0-1.5,0.7-1.5,1.5v30.5L31.8,65.4
	c-0.6,0.6-0.6,1.5,0,2.1c0.3,0.3,0.7,0.5,1.1,0.5c0.4,0,0.7-0.1,1-0.4L51,51.1c0.3-0.3,0.5-0.7,0.5-1.1V18.8
	C51.5,18,50.8,17.3,50,17.3z"/>
</svg>
